<?xml version="1.0" standalone="no"?>
<!DOCTYPE svg PUBLIC "-//W3C//DTD SVG 20010904//EN"
 "http://www.w3.org/TR/2001/REC-SVG-20010904/DTD/svg10.dtd">
<svg version="1.0" xmlns="http://www.w3.org/2000/svg"
 width="1018.000000pt" height="1280.000000pt" viewBox="0 0 1018.000000 1280.000000"
 preserveAspectRatio="xMidYMid meet">
<metadata>
Created by potrace 1.16, written by Peter Selinger 2001-2019
</metadata>
<g transform="translate(0.000000,1280.000000) scale(0.100000,-0.100000)"
fill="#000000" stroke="none">
<path d="M0 6400 l0 -6399 2610 2 c1929 1 2610 5 2610 13 0 6 -7 17 -15 24 -8
7 -15 17 -15 22 0 15 -102 118 -116 118 -7 0 -14 4 -16 9 -1 4 -21 19 -44 34
-30 19 -45 37 -59 74 -10 26 -21 50 -24 53 -9 8 -31 43 -37 60 -3 9 -42 51
-87 95 -90 87 -123 115 -136 115 -15 0 -111 91 -111 106 0 8 -4 22 -9 32 -16
29 -51 111 -51 118 0 12 -65 139 -72 142 -5 2 -8 9 -8 16 0 6 -38 50 -86 96
-89 89 -100 107 -129 205 -26 87 -33 98 -120 192 -47 51 -162 143 -179 143 -1
0 -22 18 -45 39 -24 22 -68 51 -98 66 -51 24 -92 58 -93 78 0 4 -9 17 -19 28
-11 12 -22 35 -25 53 -3 18 -40 99 -81 180 -41 82 -75 154 -75 162 0 8 -4 14
-10 14 -5 0 -10 5 -10 10 0 12 -59 107 -81 131 -19 20 -39 56 -39 71 0 16 -81
180 -97 196 -7 7 -13 18 -13 23 0 5 -9 19 -20 31 -11 12 -23 36 -26 55 -3 18
-10 33 -15 33 -5 0 -9 7 -9 15 0 8 -4 15 -9 15 -5 0 -12 15 -15 34 -4 19 -10
36 -14 38 -4 2 -18 19 -32 38 -24 33 -36 57 -66 125 -46 109 -70 155 -105 203
-21 31 -39 61 -39 69 0 7 -4 13 -10 13 -5 0 -10 11 -10 24 0 14 -4 28 -10 31
-5 3 -10 13 -10 22 0 9 -18 44 -40 79 -22 35 -40 70 -40 78 0 8 -4 17 -9 21
-6 3 -13 27 -16 53 -3 26 -10 55 -16 64 -5 10 -9 24 -9 32 0 8 -14 45 -31 81
-36 78 -104 152 -185 199 -49 29 -69 85 -68 196 1 52 2 112 3 132 1 22 -20
102 -52 200 -50 148 -75 258 -107 464 -6 39 -18 83 -26 98 -8 17 -18 84 -23
169 -6 84 -14 143 -20 145 -14 5 -14 36 -1 60 5 9 16 35 26 57 9 22 21 51 28
64 16 36 16 513 -1 519 -7 2 -13 11 -13 20 0 10 -7 26 -15 36 -29 39 -18 68
55 150 65 73 118 163 136 231 9 38 9 217 -1 268 -4 20 -11 37 -16 37 -5 0 -9
6 -9 13 0 6 -11 34 -25 61 -24 48 -47 185 -29 173 5 -3 20 -27 33 -54 13 -26
30 -59 38 -73 8 -14 23 -45 33 -70 11 -25 24 -53 30 -62 5 -10 10 -49 10 -87
0 -44 5 -74 13 -81 6 -5 23 -19 37 -29 26 -20 33 -33 95 -166 20 -44 47 -93
59 -110 12 -16 48 -77 80 -135 88 -161 114 -201 166 -255 26 -27 60 -69 74
-93 15 -23 57 -75 95 -115 37 -40 87 -106 109 -147 23 -41 64 -100 91 -130 28
-30 51 -58 51 -61 0 -4 18 -18 40 -33 21 -14 74 -59 116 -101 43 -41 102 -89
131 -107 30 -18 100 -68 156 -112 98 -75 209 -136 277 -151 18 -4 53 -16 78
-27 44 -20 53 -20 142 -9 133 17 210 30 245 41 21 7 42 6 68 -4 37 -12 52 -12
142 9 28 6 37 0 103 -65 39 -40 72 -78 72 -85 0 -8 15 -26 34 -42 38 -31 86
-97 86 -117 0 -32 26 -38 91 -21 108 28 208 86 277 159 66 71 76 92 40 82 -29
-7 -108 22 -108 41 0 7 -11 18 -25 23 -15 6 -23 15 -19 24 3 8 1 17 -5 21 -18
11 -12 34 14 57 14 12 25 28 25 35 0 8 12 26 26 40 15 15 33 42 42 62 11 26
17 31 20 19 5 -24 11 -23 47 7 25 21 27 27 15 34 -52 33 -54 36 -38 67 9 16
21 41 27 57 6 15 17 27 24 27 21 0 42 29 63 84 17 47 42 77 129 156 21 19 53
58 71 86 18 28 44 58 58 68 14 9 38 36 52 59 15 23 40 58 56 77 154 186 188
234 188 265 0 11 11 37 25 57 14 20 25 41 25 45 0 5 20 40 45 77 26 40 45 81
45 96 0 16 13 53 29 83 16 30 32 70 36 89 4 18 22 61 41 96 22 41 34 76 34
102 0 37 12 107 30 177 7 27 4 35 -20 58 -37 35 -42 69 -21 131 19 52 18 79
-8 339 -5 56 -5 97 1 108 5 10 7 31 3 46 -8 39 25 69 60 53 14 -7 30 -24 36
-39 6 -16 16 -39 21 -53 6 -14 14 -32 19 -40 5 -8 12 -22 15 -30 3 -8 14 -32
25 -54 24 -44 34 -189 17 -244 -20 -65 17 -114 41 -54 18 43 41 163 41 213 0
49 47 181 82 231 16 23 18 39 13 95 -3 39 1 94 8 128 15 69 31 78 97 51 21 -8
61 -18 89 -22 71 -9 81 2 81 87 0 38 4 69 10 69 5 0 20 -11 32 -23 13 -13 46
-37 73 -52 28 -16 66 -42 86 -59 44 -37 112 -85 154 -107 16 -9 46 -26 65 -37
60 -36 294 -150 320 -157 14 -3 34 -10 45 -14 11 -5 33 -14 48 -20 15 -6 40
-11 54 -11 29 0 169 -65 248 -115 122 -77 152 -95 163 -95 7 0 12 -3 12 -8 0
-8 73 -42 90 -42 6 0 10 -4 10 -10 0 -5 9 -10 19 -10 11 0 23 -4 26 -10 3 -5
18 -10 32 -10 78 0 251 -126 445 -323 151 -154 157 -160 190 -154 39 6 63 -11
92 -63 34 -62 66 -132 66 -147 0 -5 11 -33 25 -61 14 -29 25 -56 25 -62 0 -6
4 -18 9 -28 5 -9 15 -30 22 -47 16 -36 65 -103 96 -130 13 -11 23 -24 23 -29
0 -5 16 -31 35 -57 19 -27 35 -53 35 -58 0 -5 7 -11 15 -15 8 -3 15 -15 15
-26 0 -11 4 -28 9 -38 17 -32 41 -90 41 -99 0 -5 8 -27 19 -49 10 -21 22 -55
26 -74 4 -19 16 -53 25 -75 10 -22 20 -72 23 -112 3 -39 10 -79 15 -90 30 -58
55 -160 52 -213 -7 -124 4 -270 21 -270 5 0 9 -10 9 -23 0 -13 7 -32 15 -43 8
-10 15 -31 15 -47 0 -15 5 -35 11 -45 8 -13 7 -27 -5 -55 -15 -37 -15 -38 9
-59 18 -16 25 -32 25 -58 0 -24 6 -40 20 -50 11 -8 20 -19 20 -26 0 -6 11 -33
25 -60 23 -44 25 -61 25 -171 0 -67 4 -124 9 -127 5 -3 12 -34 15 -68 10 -99
26 -191 38 -215 6 -12 8 -29 5 -37 -3 -8 -2 -18 3 -21 6 -4 10 -14 10 -23 0
-14 -2 -13 -13 3 -15 22 -67 181 -67 205 0 8 -9 29 -20 45 -11 17 -20 42 -20
57 0 15 -8 34 -17 43 -16 16 -17 16 -29 0 -10 -13 -10 -25 2 -58 9 -23 13 -56
10 -74 -2 -17 4 -64 15 -105 11 -40 27 -104 35 -143 8 -38 29 -131 46 -205 17
-74 37 -169 45 -210 8 -41 27 -116 44 -165 17 -53 29 -114 30 -145 0 -30 10
-102 22 -160 l22 -105 0 4912 0 4913 -5087 0 -5088 0 0 -6400z m4135 5790 c0
-21 -5 -25 -30 -25 -25 -1 -31 -5 -33 -27 -3 -24 -23 -37 -58 -38 -6 0 -34 17
-62 38 -57 43 -55 62 8 62 19 0 42 5 50 10 8 6 40 9 70 8 51 -3 55 -5 55 -28z
m269 21 c3 -4 40 -11 82 -14 42 -3 80 -9 85 -14 12 -12 -9 -83 -27 -90 -8 -3
-21 1 -30 8 -9 7 -39 16 -68 20 -113 15 -183 33 -213 56 -18 13 -33 28 -33 34
0 11 197 12 204 0z m800 -107 c72 -37 174 -97 227 -135 53 -37 108 -71 123
-75 14 -3 26 -9 26 -13 0 -3 27 -24 60 -46 33 -22 60 -46 60 -53 0 -7 4 -20 9
-30 5 -9 30 -60 56 -112 25 -52 58 -107 72 -122 14 -14 23 -32 20 -40 -3 -8
-43 27 -108 94 -78 80 -114 109 -144 119 -22 6 -54 26 -72 43 -47 46 -92 80
-161 121 -42 26 -69 50 -87 80 -32 55 -35 57 -105 59 -50 2 -66 9 -128 50 -67
45 -112 90 -112 115 0 7 25 11 67 11 63 0 75 -4 197 -66z m-2401 -440 c-6 -16
-96 -64 -120 -64 -6 0 -45 -31 -86 -69 -41 -38 -85 -72 -98 -76 -13 -4 -36
-16 -51 -26 -36 -26 -52 -24 -127 15 -53 27 -83 35 -149 40 -80 6 -85 5 -136
-24 -30 -16 -62 -30 -72 -30 -11 0 -32 -7 -49 -16 -53 -27 -113 -34 -164 -17
-52 17 -74 33 -48 33 10 0 26 5 37 10 11 6 29 15 40 20 11 6 44 10 74 10 30 0
57 4 61 10 3 5 33 12 66 16 32 4 62 11 65 15 3 5 41 9 84 9 43 0 81 4 84 9 3
5 35 12 70 16 73 7 106 -4 106 -36 0 -18 5 -21 31 -17 22 4 33 0 40 -14 17
-31 37 -21 41 18 2 24 10 41 22 48 11 6 29 19 40 29 12 10 33 21 49 24 15 3
30 10 33 14 3 5 13 9 22 9 9 0 28 6 42 14 99 54 103 55 93 30z m-1162 -288
c-16 -25 -21 -50 -21 -103 l0 -70 -40 -7 c-30 -5 -47 -16 -72 -47 -18 -23 -45
-47 -60 -55 -30 -15 -38 -5 -13 16 16 14 45 67 45 84 0 6 10 22 23 36 19 21
42 60 87 150 6 12 34 26 63 29 5 1 -1 -14 -12 -33z m4390 -98 c28 -22 99 -147
99 -173 0 -14 4 -33 9 -43 5 -9 14 -35 21 -57 7 -22 17 -51 23 -65 15 -36 16
-50 7 -50 -13 0 -130 138 -130 154 0 7 11 23 25 36 35 33 31 56 -13 84 -55 34
-92 82 -92 117 0 31 8 31 51 -3z m-4898 -495 c-15 -32 -29 -76 -32 -97 -4 -24
-14 -43 -26 -50 -11 -6 -37 -24 -57 -39 -35 -26 -56 -35 -129 -51 -15 -3 -29
-14 -31 -24 -3 -11 -18 -21 -36 -25 -21 -4 -44 -22 -72 -58 -22 -28 -52 -60
-65 -71 -24 -19 -25 -24 -25 -132 l0 -113 60 -118 c50 -99 59 -125 54 -154 -4
-30 2 -48 35 -103 23 -37 41 -74 41 -82 0 -24 52 -148 75 -181 22 -31 55 -90
55 -99 0 -3 -7 -3 -15 0 -8 4 -15 10 -15 14 0 10 -79 128 -91 135 -5 4 -9 17
-9 30 0 13 -4 27 -10 30 -5 3 -10 13 -10 21 0 16 -38 78 -86 139 -17 22 -46
71 -65 108 -19 38 -38 77 -44 88 -5 10 -13 19 -17 19 -12 0 -10 368 2 375 6 3
10 26 10 50 0 25 6 47 13 52 7 4 31 33 54 63 70 91 81 101 109 94 13 -3 30 -2
37 4 6 5 29 12 50 16 29 5 57 25 113 78 41 39 74 77 74 84 0 8 5 14 10 14 6 0
10 6 10 14 0 13 16 22 47 25 7 1 2 -21 -14 -56z m3372 -1007 c22 -9 41 -28 53
-53 11 -21 34 -51 51 -67 17 -17 31 -38 31 -47 0 -10 20 -39 45 -66 25 -26 45
-54 45 -63 0 -8 7 -28 15 -44 10 -19 13 -41 9 -62 -4 -20 -2 -34 4 -34 5 0 31
-17 58 -38 27 -21 61 -43 76 -49 14 -7 29 -20 32 -30 4 -12 33 -29 78 -47 81
-31 147 -81 180 -135 12 -20 48 -64 80 -98 32 -34 58 -69 58 -79 0 -20 39 -81
86 -135 29 -34 70 -124 77 -171 2 -11 25 -42 51 -69 36 -37 47 -55 43 -71 -4
-13 2 -31 14 -46 10 -14 19 -35 19 -48 0 -12 18 -44 40 -69 22 -25 41 -56 42
-68 1 -12 2 -41 3 -65 1 -24 7 -48 13 -54 17 -17 15 -38 -3 -32 -18 7 -75 -32
-75 -53 0 -8 23 -37 50 -63 28 -26 50 -50 50 -54 0 -10 -29 -7 -50 6 -15 10
-22 10 -32 0 -9 -9 -8 -16 6 -31 10 -11 24 -17 31 -15 7 3 16 0 20 -7 10 -15
12 -145 3 -154 -10 -11 -48 5 -48 19 0 23 -26 38 -39 23 -12 -15 7 -65 34 -87
8 -7 15 -28 15 -46 0 -31 -3 -34 -30 -34 -21 0 -30 5 -30 16 0 8 -5 12 -11 9
-7 -5 -3 -15 10 -29 16 -17 19 -30 14 -60 -3 -21 -14 -43 -24 -49 -11 -7 -19
-17 -19 -23 0 -6 -12 -21 -26 -35 -22 -21 -25 -30 -22 -69 3 -25 12 -62 22
-82 25 -52 18 -92 -16 -96 -26 -3 -62 -32 -102 -82 -17 -21 -18 -29 -7 -69 10
-38 10 -47 -4 -60 -13 -14 -18 -14 -44 2 -27 15 -31 16 -45 2 -11 -12 -13 -22
-6 -39 7 -19 3 -31 -15 -56 -13 -17 -28 -44 -35 -60 -8 -20 -22 -31 -43 -36
-48 -10 -58 -22 -51 -60 7 -40 -8 -64 -41 -64 -27 0 -39 -13 -54 -62 -7 -21
-16 -38 -21 -38 -19 0 -16 -41 6 -74 13 -19 24 -39 24 -44 0 -14 -61 -82 -75
-82 -21 0 -53 44 -66 90 -7 25 -16 47 -19 50 -4 3 -15 20 -26 38 -11 19 -29
35 -44 38 -29 6 -46 15 -130 72 -68 45 -113 54 -129 24 -8 -16 -23 -18 -128
-16 -128 2 -133 0 -133 -53 0 -21 -7 -37 -22 -47 -31 -22 -47 -20 -103 10 -29
15 -57 23 -70 20 -12 -3 -38 -1 -59 5 -50 14 -84 5 -88 -24 -3 -23 -38 -34
-140 -41 -26 -2 -60 -9 -77 -15 -25 -11 -33 -10 -55 4 -14 10 -26 24 -26 31 0
8 35 51 78 95 42 45 83 88 90 95 16 17 55 18 83 4 14 -8 30 -6 62 8 38 17 45
26 73 93 52 125 60 159 53 219 -6 45 -13 59 -35 75 -16 11 -40 31 -55 45 -20
20 -49 30 -124 44 l-99 19 -17 -22 c-10 -12 -29 -21 -43 -21 -15 0 -29 -7 -33
-15 -3 -9 -18 -22 -34 -31 -23 -12 -29 -21 -29 -49 0 -18 -4 -37 -10 -40 -5
-3 -10 -15 -10 -26 0 -27 48 -119 65 -126 22 -8 62 5 82 26 43 44 94 52 159
25 65 -27 74 -66 22 -89 -18 -8 -52 -34 -75 -58 -28 -30 -54 -47 -78 -51 -20
-4 -60 -27 -93 -54 -73 -61 -159 -102 -211 -102 -22 0 -51 -5 -65 -11 -35 -16
-108 12 -141 55 -36 48 -44 105 -44 322 0 109 -3 290 -6 401 -3 128 -1 204 5
208 6 3 10 15 10 26 0 11 7 30 15 43 17 26 13 42 -51 171 -50 101 -84 145
-115 152 -15 3 -40 18 -55 34 -18 19 -38 29 -56 29 -17 0 -40 10 -56 25 -27
25 -61 28 -104 10 -13 -5 -18 -2 -18 9 0 9 -11 28 -25 42 -21 20 -31 24 -59
19 -30 -6 -37 -3 -52 20 -13 21 -22 25 -42 20 -37 -9 -109 5 -145 29 -23 15
-33 32 -37 56 -4 30 -9 35 -29 32 -40 -4 -71 23 -71 62 0 30 -23 71 -60 106
-3 3 -12 13 -19 23 -13 16 -13 19 0 17 30 -4 59 12 59 34 -1 20 -2 20 -14 3
-12 -16 -15 -16 -27 -1 -10 12 -10 20 -1 34 9 16 6 22 -23 45 -24 18 -35 34
-35 53 -1 36 -35 74 -87 96 -25 11 -40 23 -37 31 3 7 -4 31 -15 54 -25 48 -26
69 -6 91 13 14 12 31 -6 143 -17 106 -19 133 -9 157 7 17 20 30 29 30 9 0 27
7 40 16 17 12 53 17 149 20 121 4 127 3 158 -21 37 -29 94 -33 134 -10 14 8
35 14 48 15 27 0 72 45 72 72 0 11 9 22 20 25 10 3 22 13 25 23 3 9 26 43 50
75 25 31 45 60 45 64 0 3 22 30 49 59 39 41 55 52 80 52 36 0 66 17 130 72 47
41 94 51 105 22 4 -11 14 -14 35 -9 26 5 35 0 71 -39 40 -43 46 -46 94 -46 31
0 65 -7 86 -19 109 -58 296 -48 437 22 15 8 69 22 118 31 103 20 219 67 253
102 12 13 33 26 45 28 12 3 31 7 42 9 36 8 45 7 80 -7z m-3450 -472 c19 -13
25 -25 25 -54 0 -34 5 -42 42 -67 22 -15 45 -35 49 -43 26 -51 39 -92 39 -120
0 -31 16 -55 113 -165 20 -23 37 -47 37 -52 0 -20 53 -128 77 -156 24 -30 30
-57 12 -57 -16 0 -119 101 -119 116 0 8 -4 14 -9 14 -10 0 -41 78 -41 102 0 9
-3 18 -7 20 -5 2 -17 20 -27 41 -11 20 -37 56 -58 79 -21 23 -38 45 -38 49 0
4 -3 9 -7 11 -15 6 -53 94 -64 146 -6 28 -14 52 -18 52 -4 0 -13 16 -21 35 -8
19 -17 35 -22 35 -4 0 -8 7 -8 15 0 19 15 19 45 -1z m5250 -10 c23 -9 101
-133 110 -175 4 -19 15 -52 25 -74 32 -71 40 -106 50 -219 6 -61 20 -147 31
-191 26 -98 28 -223 5 -257 -21 -30 -20 -57 4 -93 37 -56 19 -154 -53 -287
-43 -79 -48 -84 -112 -116 l-66 -32 -44 19 c-37 16 -45 25 -51 56 -3 20 -4 54
-1 76 4 31 -1 52 -24 97 -35 70 -36 88 -4 148 33 63 32 95 -5 132 -21 21 -30
40 -30 62 0 17 -10 44 -22 60 -18 25 -23 50 -29 151 -4 66 -4 130 1 142 6 16
3 28 -12 44 -19 20 -20 26 -8 68 7 25 10 66 7 92 -4 40 -1 49 20 71 15 15 27
41 31 64 5 38 6 39 41 36 l36 -3 0 45 c0 39 4 46 28 58 15 7 27 17 27 23 0 10
21 12 45 3z m-4631 -957 c15 -19 26 -37 26 -40 0 -4 23 -35 51 -69 28 -35 57
-80 66 -101 11 -26 23 -39 42 -43 49 -12 101 -77 101 -126 0 -19 -18 -5 -100
77 -61 62 -102 111 -106 128 -9 41 -51 114 -84 147 -22 22 -42 60 -31 60 6 0
21 -15 35 -33z m1404 -904 c15 -9 29 -18 31 -20 3 -2 -12 -17 -32 -34 -21 -17
-37 -40 -37 -51 0 -27 -45 -79 -84 -99 -17 -8 -43 -23 -59 -33 l-27 -18 -15
36 c-21 49 -19 69 10 96 13 12 39 47 57 76 32 54 63 70 74 39 4 -8 15 -15 25
-15 22 0 24 11 7 28 -19 19 17 15 50 -5z m76 -559 c22 -8 20 -30 -4 -54 -19
-19 -19 -22 -4 -45 19 -29 34 -111 41 -218 4 -68 2 -82 -18 -115 -25 -41 -37
-52 -58 -52 -8 0 -11 6 -7 16 5 13 2 15 -11 9 -46 -20 -56 -13 -57 40 -1 36
-5 50 -15 50 -8 0 -30 19 -48 43 -28 37 -32 49 -27 82 5 30 2 42 -15 59 -25
25 -25 25 -5 45 8 9 11 16 5 16 -22 0 -10 18 19 29 17 5 33 17 36 26 4 9 19
15 41 15 35 0 54 12 66 43 6 17 32 22 61 11z m1600 -571 c22 -20 43 -42 45
-47 2 -6 13 -30 24 -54 l21 -43 -24 -44 c-14 -25 -28 -45 -32 -45 -5 0 -8 -24
-8 -54 0 -47 -3 -56 -26 -71 -23 -15 -25 -21 -20 -58 9 -60 12 -168 5 -197 -4
-20 -14 -26 -45 -32 -126 -22 -119 -18 -119 -70 0 -53 -11 -71 -29 -46 -12 17
-14 17 -28 0 -8 -9 -20 -31 -27 -49 -21 -51 -33 -57 -93 -42 -29 6 -65 21 -79
31 -22 17 -32 18 -64 9 -33 -9 -38 -8 -42 10 -3 10 -10 19 -15 19 -5 0 -29 20
-54 44 -35 36 -44 51 -44 80 0 29 5 38 30 51 16 8 34 15 40 15 27 0 82 35 97
61 11 19 31 33 53 39 28 8 40 19 57 52 l20 43 -53 -3 c-41 -3 -65 1 -94 17
-43 22 -90 28 -90 11 0 -5 -7 -10 -15 -10 -21 0 -19 17 3 24 18 7 72 77 72 94
0 6 -9 14 -20 17 -11 3 -20 11 -20 16 0 15 56 10 70 -6 20 -24 55 -18 98 18
22 17 70 52 106 77 50 35 69 55 82 87 15 37 22 44 68 59 28 9 55 20 61 25 18
18 48 8 89 -28z"/>
<path d="M4211 8765 c-19 -14 -44 -25 -56 -25 -13 0 -29 -10 -38 -22 -15 -24
-96 -67 -247 -134 -47 -20 -105 -54 -130 -75 -27 -22 -68 -43 -104 -54 -104
-29 -156 -109 -111 -169 8 -11 15 -38 15 -61 0 -34 7 -49 42 -89 32 -36 43
-57 45 -87 5 -69 15 -78 81 -74 31 2 81 8 109 13 56 9 73 2 73 -29 0 -10 11
-30 24 -46 13 -16 27 -45 31 -65 9 -48 28 -52 128 -27 85 21 115 34 132 55 6
6 28 15 50 19 76 13 103 30 107 67 3 30 6 33 43 39 26 3 52 16 74 37 18 18 39
32 47 32 31 0 94 26 94 38 0 7 6 34 14 60 8 26 17 59 20 75 4 15 12 27 19 27
7 0 22 7 33 15 19 15 18 16 -8 39 -16 14 -28 29 -28 35 0 5 -17 20 -37 33 -30
18 -54 23 -118 25 -91 3 -202 -14 -226 -34 -8 -7 -34 -13 -57 -13 -27 0 -47
-6 -59 -18 -10 -11 -41 -26 -70 -35 -91 -30 -106 -21 -65 39 41 59 103 113
143 124 20 6 42 17 50 26 19 23 64 44 96 44 15 0 48 7 72 16 24 8 71 17 105
19 34 2 90 9 125 14 96 15 191 3 214 -26 20 -25 47 -31 47 -10 0 6 -12 38 -27
69 -25 51 -33 59 -73 72 -26 8 -101 17 -172 20 -75 3 -139 11 -159 19 -47 20
-126 40 -174 43 -30 2 -49 -3 -74 -21z m-8 -661 c31 -36 55 -70 51 -75 -17
-28 -70 -41 -144 -36 -64 4 -79 2 -99 -14 -13 -10 -34 -19 -46 -19 -24 0 -55
23 -55 41 0 14 38 49 54 49 8 0 31 19 50 42 43 49 83 78 112 78 13 0 41 -24
77 -66z"/>
<path d="M4200 2480 c-12 -7 -15 -30 -14 -107 1 -81 5 -107 25 -148 24 -50 24
-50 79 -55 51 -5 55 -7 58 -33 3 -22 -3 -31 -27 -45 -17 -9 -31 -25 -31 -36 0
-20 62 -139 117 -223 35 -55 56 -66 108 -59 17 3 33 5 38 5 16 2 5 25 -31 71
-22 28 -46 74 -56 107 -9 32 -28 81 -42 109 -13 28 -24 55 -24 61 0 5 14 22
30 38 25 24 37 29 74 26 34 -2 57 5 102 30 69 39 134 89 134 105 0 24 -59 44
-275 94 -49 12 -121 32 -159 46 -77 27 -85 28 -106 14z"/>
<path d="M5135 2246 c-19 -13 -19 -15 0 -57 11 -24 30 -60 43 -80 27 -43 29
-122 2 -126 -8 -2 -66 38 -129 87 -90 70 -124 91 -157 96 -82 12 -136 -26 -97
-68 11 -13 30 -42 42 -65 16 -32 27 -43 45 -43 26 0 51 -24 41 -40 -3 -5 -13
-10 -21 -10 -19 0 -18 -52 1 -90 19 -37 54 -46 116 -31 56 15 145 20 161 10 9
-6 9 -23 -1 -74 -17 -82 -14 -85 119 -160 134 -77 128 -93 107 290 -7 134 -14
190 -28 220 -10 23 -21 53 -24 67 -10 41 -33 55 -119 72 -43 9 -79 16 -80 16
-1 0 -11 -6 -21 -14z"/>
<path d="M6725 538 c-3 -7 -13 -118 -24 -246 -14 -172 -23 -238 -35 -257 -9
-13 -16 -27 -16 -30 0 -3 54 -5 120 -5 l120 0 0 29 c0 17 15 51 35 81 19 29
35 54 35 57 0 2 -13 16 -30 30 -34 28 -37 50 -14 95 10 20 14 45 11 69 -3 21
-1 39 5 41 11 4 -63 64 -140 114 -61 38 -61 39 -67 22z"/>
<path d="M8580 453 c0 -21 -3 -62 -6 -90 -7 -52 -6 -53 19 -53 20 0 26 6 29
27 4 37 20 38 41 3 17 -27 23 -30 72 -30 44 0 56 4 65 20 6 11 20 20 31 20 12
0 23 -8 26 -20 4 -13 14 -20 30 -20 16 0 23 5 21 13 -59 165 -60 167 -84 167
-19 0 -26 -10 -45 -70 -34 -107 -40 -112 -77 -58 l-31 45 30 42 c31 41 31 41
7 41 -14 0 -35 -14 -55 -37 l-32 -38 -1 38 c0 30 -4 37 -20 37 -16 0 -20 -7
-20 -37z"/>
<path d="M8930 400 c0 -89 0 -90 25 -90 20 0 25 5 25 25 0 18 5 25 19 25 29 0
71 39 71 66 0 40 -33 64 -90 64 l-50 0 0 -90z"/>
<path d="M9086 465 c15 -60 62 -160 77 -163 10 -2 23 11 35 34 l19 37 7 -29
c8 -29 22 -44 42 -44 13 0 15 4 55 113 l28 78 -26 -3 c-22 -2 -28 -11 -38 -51
-14 -54 -23 -67 -34 -48 -5 7 -3 33 5 57 12 41 12 44 -6 44 -11 0 -22 -11 -28
-27 l-10 -28 -7 28 c-5 20 -13 27 -31 27 -24 0 -24 0 -9 -36 17 -41 20 -74 6
-74 -6 0 -18 25 -27 55 -15 46 -21 55 -41 55 -20 0 -22 -4 -17 -25z"/>
<path d="M9450 395 c0 -95 0 -95 25 -95 23 0 25 3 25 51 l0 51 41 -52 c60 -76
73 -68 77 48 l3 92 -26 0 c-23 0 -25 -3 -25 -47 l-1 -48 -42 48 c-23 26 -50
47 -59 47 -16 0 -18 -11 -18 -95z"/>
<path d="M9684 478 c-39 -18 -56 -86 -34 -129 17 -31 63 -50 99 -39 19 5 31 5
31 -1 0 -5 9 -9 20 -9 17 0 20 7 20 50 l0 50 -40 0 c-29 0 -40 -4 -40 -15 0
-8 7 -15 16 -15 8 0 12 -4 9 -10 -9 -14 -48 -13 -63 2 -7 7 -12 24 -12 38 0
14 5 31 12 38 15 15 50 16 64 2 8 -8 15 -6 25 6 11 14 11 18 -6 30 -22 16 -70
17 -101 2z"/>
<path d="M8949 158 c-12 -49 -42 -88 -82 -105 -16 -8 -27 -20 -27 -33 0 -20 4
-20 271 -18 l272 3 53 90 c30 49 54 93 54 97 0 5 -119 8 -265 8 l-265 0 -11
-42z"/>
</g>
</svg>
